<svg xmlns="http://www.w3.org/2000/svg" xmlns:xlink="http://www.w3.org/1999/xlink" width="500" zoomAndPan="magnify" viewBox="0 0 375 374.999991" height="500" preserveAspectRatio="xMidYMid meet" version="1.0"><defs><g/><clipPath id="fce2cff006"><path d="M 50.433594 62 L 327.933594 62 L 327.933594 289.792969 L 50.433594 289.792969 Z M 50.433594 62 " clip-rule="nonzero"/></clipPath></defs><g clip-path="url(#fce2cff006)"><path fill="#000000" d="M 131.8125 287.007812 L 175.523438 243.300781 C 177.761719 241.0625 181.402344 241.0625 183.636719 243.300781 L 222.148438 281.8125 C 226.300781 285.960938 233.054688 285.960938 237.203125 281.8125 L 250.589844 268.425781 C 252.601562 266.414062 253.707031 263.742188 253.707031 260.898438 C 253.707031 258.054688 252.601562 255.382812 250.589844 253.371094 L 187.105469 189.886719 C 182.957031 185.738281 176.203125 185.738281 172.054688 189.886719 L 103.371094 258.566406 C 99.222656 262.71875 99.222656 269.472656 103.371094 273.625 L 116.757812 287.007812 C 118.835938 289.085938 121.558594 290.121094 124.285156 290.121094 C 127.011719 290.121094 129.738281 289.085938 131.8125 287.007812 Z M 311.722656 257.242188 L 325.109375 243.851562 C 327.121094 241.839844 328.226562 239.167969 328.226562 236.328125 C 328.226562 233.484375 327.121094 230.808594 325.109375 228.796875 L 236.65625 140.34375 C 232.503906 136.191406 225.75 136.191406 221.597656 140.34375 L 208.210938 153.730469 C 204.0625 157.878906 204.0625 164.632812 208.210938 168.78125 L 296.667969 257.242188 C 298.746094 259.316406 301.46875 260.351562 304.195312 260.351562 C 306.921875 260.351562 309.648438 259.316406 311.722656 257.242188 Z M 74.46875 240.308594 C 71.625 240.308594 68.953125 239.203125 66.941406 237.191406 L 53.554688 223.804688 C 51.542969 221.792969 50.4375 219.121094 50.4375 216.277344 C 50.4375 213.433594 51.542969 210.761719 53.554688 208.75 L 197.101562 65.203125 C 201.25 61.054688 208.003906 61.054688 212.15625 65.203125 L 225.539062 78.59375 C 229.691406 82.742188 229.691406 89.496094 225.539062 93.644531 L 81.996094 237.191406 C 79.984375 239.203125 77.3125 240.308594 74.46875 240.308594 " fill-opacity="1" fill-rule="nonzero"/></g><g fill="#000000" fill-opacity="1"><g transform="translate(128.677489, 329.79997)"><g><path d="M 2.078125 -19.265625 L 17.640625 -19.265625 L 17.640625 -14.640625 L 8.265625 -14.640625 L 8.265625 -11.34375 L 16.328125 -11.34375 L 16.328125 -6.921875 L 8.265625 -6.921875 L 8.265625 0 L 2.078125 0 Z M 2.078125 -19.265625 "/></g></g></g><g fill="#000000" fill-opacity="1"><g transform="translate(147.350938, 329.79997)"><g><path d="M 2.359375 0 L 2.359375 -19.265625 L 8.546875 -19.265625 L 8.546875 0 Z M 2.359375 0 "/></g></g></g><g fill="#000000" fill-opacity="1"><g transform="translate(158.241455, 329.79997)"><g><path d="M 2.078125 -19.265625 L 8.265625 -19.265625 L 8.265625 -4.921875 L 18.140625 -4.921875 L 18.140625 0 L 2.078125 0 Z M 2.078125 -19.265625 "/></g></g></g><g fill="#000000" fill-opacity="1"><g transform="translate(176.914905, 329.79997)"><g><path d="M 2.078125 -19.265625 L 18.734375 -19.265625 L 18.734375 -14.640625 L 8.265625 -14.640625 L 8.265625 -11.984375 L 17.21875 -11.984375 L 17.21875 -7.5625 L 8.265625 -7.5625 L 8.265625 -4.625 L 18.921875 -4.625 L 18.921875 0 L 2.078125 0 Z M 2.078125 -19.265625 "/></g></g></g><g fill="#000000" fill-opacity="1"><g transform="translate(197.128145, 329.79997)"><g/></g></g><g fill="#000000" fill-opacity="1"><g transform="translate(206.450868, 329.79997)"><g><path d="M 21.25 -7.75 C 21.25 -5.125 20.414062 -3.117188 18.75 -1.734375 C 17.09375 -0.347656 14.734375 0.34375 11.671875 0.34375 C 8.609375 0.34375 6.242188 -0.347656 4.578125 -1.734375 C 2.910156 -3.117188 2.078125 -5.125 2.078125 -7.75 L 2.078125 -19.265625 L 8.265625 -19.265625 L 8.265625 -7.84375 C 8.265625 -6.757812 8.550781 -5.894531 9.125 -5.25 C 9.707031 -4.601562 10.546875 -4.28125 11.640625 -4.28125 C 12.742188 -4.28125 13.585938 -4.609375 14.171875 -5.265625 C 14.765625 -5.921875 15.0625 -6.78125 15.0625 -7.84375 L 15.0625 -19.265625 L 21.25 -19.265625 Z M 21.25 -7.75 "/></g></g></g><g fill="#000000" fill-opacity="1"><g transform="translate(229.771682, 329.79997)"><g><path d="M 12.875 -19.265625 C 14.070312 -19.265625 15.132812 -18.988281 16.0625 -18.4375 C 17 -17.882812 17.726562 -17.128906 18.25 -16.171875 C 18.78125 -15.210938 19.046875 -14.132812 19.046875 -12.9375 L 19.046875 -12.578125 C 19.046875 -11.378906 18.78125 -10.296875 18.25 -9.328125 C 17.726562 -8.359375 17 -7.597656 16.0625 -7.046875 C 15.132812 -6.492188 14.070312 -6.21875 12.875 -6.21875 L 8.265625 -6.21875 L 8.265625 0 L 2.078125 0 L 2.078125 -19.265625 Z M 8.265625 -10.71875 L 10.8125 -10.71875 C 11.457031 -10.71875 11.941406 -10.882812 12.265625 -11.21875 C 12.597656 -11.5625 12.765625 -12.019531 12.765625 -12.59375 L 12.765625 -12.828125 C 12.765625 -13.421875 12.597656 -13.878906 12.265625 -14.203125 C 11.941406 -14.535156 11.457031 -14.703125 10.8125 -14.703125 L 8.265625 -14.703125 Z M 8.265625 -10.71875 "/></g></g></g></svg>