<svg xmlns="http://www.w3.org/2000/svg" xmlns:xlink="http://www.w3.org/1999/xlink" width="500" zoomAndPan="magnify" viewBox="0 0 375 374.999991" height="500" preserveAspectRatio="xMidYMid meet" version="1.0"><defs><clipPath id="5368fb0c5a"><path d="M 64.648438 80.867188 L 310.648438 80.867188 L 310.648438 280.367188 L 64.648438 280.367188 Z M 64.648438 80.867188 " clip-rule="nonzero"/></clipPath><clipPath id="e13e84af9f"><path d="M 65 100 L 310 100 L 310 280.367188 L 65 280.367188 Z M 65 100 " clip-rule="nonzero"/></clipPath></defs><g clip-path="url(#5368fb0c5a)"><path fill="#c2ab7a" d="M 120.171875 80.976562 C 116.34375 80.976562 111.941406 80.972656 106.867188 80.976562 L 90.203125 81.164062 C 70.46875 81.390625 68.898438 81.203125 67.664062 85.984375 C 67.222656 87.222656 66.351562 88.9375 65.742188 89.71875 C 64.671875 91.089844 64.625 94.394531 64.625 185.332031 C 64.625 237.167969 64.8125 279.769531 65.035156 279.984375 C 65.253906 280.199219 120.535156 280.308594 187.882812 280.226562 L 310.324219 280.078125 L 310.492188 189.085938 C 310.636719 100.875 310.605469 98.074219 309.519531 97.039062 C 308.90625 96.449219 308.070312 94.964844 307.675781 93.742188 C 307.277344 92.519531 306.238281 90.957031 305.359375 90.261719 C 303.796875 89.023438 303.417969 89 287.464844 89.292969 C 242.484375 89.570312 198.65625 89.976562 151.066406 89.710938 C 149.425781 89.171875 148.730469 88.46875 147.578125 85.980469 C 145.457031 81.390625 146.960938 80.96875 120.167969 80.972656 Z M 120.171875 80.976562 " fill-opacity="1" fill-rule="nonzero"/></g><g clip-path="url(#e13e84af9f)"><path fill="#d2bb89" d="M 156.511719 100.90625 C 146.347656 100.90625 142.554688 104.324219 138.609375 112.460938 C 121.597656 112.652344 79.503906 112.730469 76.464844 112.730469 C 73.421875 112.730469 65.472656 117.625 65.472656 123.695312 L 65.472656 280.257812 L 309.699219 280.257812 L 309.699219 111.867188 C 309.699219 105.796875 304.792969 100.902344 298.710938 100.902344 Z M 156.511719 100.90625 " fill-opacity="1" fill-rule="nonzero"/></g></svg>